<svg xmlns="http://www.w3.org/2000/svg" width="32" height="32" viewBox="0 0 32 32"><title>favicon</title><path d="M65.49,40.83l-.21-.36a1.56,1.56,0,0,0-2-.45l-.09,0c-2.53-.1-5,.08-7.59-.26-4.12-.56-5.67-2.88-7.72-5.75-.15-.2-.54-.07-.45.17s.22.65.33,1a.48.48,0,0,0-.47.15c-4,4.6-4.08,11.18-3.18,17a.86.86,0,0,0-.16.77c.21.65.35.66.05,1.4a7.81,7.81,0,0,1-3.35,3.89,6,6,0,0,1-3,.67c-.44,0-1.19,0-1.2-.5a3.9,3.9,0,0,1,.37-1.5c.92-1.86,3.3-3.14,5-4.4.56-.42-.17-1.24-.79-.89-2.66,1.5-5.71,2.82-7,5.5s1.36,4.18,4.11,4.11a8.56,8.56,0,0,0,7-4.13c.73-1.32,2.37-3.75.83-5a35.55,35.55,0,0,0,.38-4.87c0-3.86,1-7.53,1.71-11.31.74,2.28,1.63,4.52,4.37,5.52a29,29,0,0,0,9.17,1.58,10.14,10.14,0,0,0-2.09,5.43c0,2-.22,4.48.37,6.58a14.68,14.68,0,0,0-7.5,3.82c-1.65,1.65-2.85,4.44-.7,6.18,3.36,2.72,11.59-1.68,10.12-5.55a.41.41,0,0,0-.78.19c.45,2.49-5.79,5.55-7.62,3.27-.89-1.12,1.47-3.42,2.22-4.12a12.75,12.75,0,0,1,4.69-2.65,6.19,6.19,0,0,0,.3.57,1,1,0,0,0,1.6,0c1.35-2.14,1-4.88,1.09-7.25s1.38-4.46,1.36-6.65A1.4,1.4,0,0,0,65.49,40.83Z" transform="translate(-33.71 -33.95)"/></svg>