<svg xmlns="http://www.w3.org/2000/svg" width="99.93" height="99.93" viewBox="0 0 99.93 99.93"><title>noun_Music_1926653</title><path d="M91.85,22.25l-.57-1.07A3.91,3.91,0,0,0,86,19.79c-.07,0-.14.1-.22.14-6.76-.31-13.48.22-20.25-.81-11-1.68-15.15-8.74-20.63-17.44a.66.66,0,0,0-1.21.51c.31,1,.6,2,.88,3a1.16,1.16,0,0,0-1.24.46c-10.63,14-10.9,33.94-8.49,51.48a2.83,2.83,0,0,0-.42,2.33c.54,2,.92,2,.12,4.25A23.15,23.15,0,0,1,25.6,75.52a14.44,14.44,0,0,1-8.06,2c-1.18,0-3.17,0-3.2-1.49a13.23,13.23,0,0,1,1-4.57c2.46-5.63,8.8-9.52,13.33-13.35,1.51-1.28-.45-3.77-2.09-2.72C19.47,60,11.3,64,7.89,72.13s3.63,12.68,11,12.46c7.76-.23,15.27-5.67,18.62-12.55,1.94-4,6.33-11.38,2.22-15.31a124.66,124.66,0,0,0,1-14.79c.06-11.73,2.72-22.87,4.57-34.35,2,6.93,4.35,13.72,11.66,16.77a69.2,69.2,0,0,0,24.5,4.79c-2.91,5.09-5.64,10.57-5.59,16.49.07,6.22-.59,13.59,1,20a37.77,37.77,0,0,0-20,11.59c-4.41,5-7.61,13.49-1.87,18.77,9,8.25,30.94-5.11,27-16.84a1.07,1.07,0,0,0-2.07.57c1.2,7.56-15.46,16.85-20.34,9.92-2.38-3.39,3.91-10.37,5.91-12.49A33.24,33.24,0,0,1,78,69.07c.26.58.48,1.18.79,1.74a2.49,2.49,0,0,0,4.27,0c3.62-6.49,2.7-14.8,2.91-22,.2-6.85,3.69-13.53,3.64-20.19A4.47,4.47,0,0,0,91.85,22.25Z" transform="translate(0 -0.05)"/><rect width="99.93" height="99.93" fill="none"/></svg>