<svg xmlns="http://www.w3.org/2000/svg" viewBox="0 0 73.95 77.58"><title>arrows</title><path d="M86.5,88.4A132.18,132.18,0,0,0,35,30.4c-2.6-1.6-5.2-3-7.8-4.4,2.9,5.1,4.4,11,5.3,16.8,0-.2.3,1.4.1,1.5S32,42.8,32,43a40.71,40.71,0,0,1-1.3-5,10.09,10.09,0,0,0-.7-1.5c-.5-1-1-1.9-1.5-2.8a37.44,37.44,0,0,0-4.1-5.5c-1.9-2.2-4-4.3-6.1-6.3L16.2,21H16c-.1,0-.1-.1-.2-.1s-.3-.1-.5-.2a2.69,2.69,0,0,1-.4-1.3L14,16.1c-.3-1.1-.5-2.2-.8-3.3,0-.2-.2-1.4-.2-1.4s.3.1.4.2v-.3c.1.1.2.1.2.2v-.1c5.3.4,10.5.7,15.8,1.1,2.5.2,5,.3,7.5.5l4.1.3c.8.1,1.9.5,2.6-.1v-.1h.1c.6.2,1.2,3.7,1.3,4.3.3,1.1,1.2,3.2.8,4.4-.5,1.4-5.1.5-6.3.5L34,22A130,130,0,0,1,73.8,60,118.7,118.7,0,0,1,85,80.4a28,28,0,0,1,1.7,6.3C86.8,87.1,87.3,90,86.5,88.4Z" transform="translate(-13 -11.3)"/></svg>