<svg xmlns="http://www.w3.org/2000/svg" viewBox="0 0 100 99.99"><title>dark-light-mode</title><path d="M559.16,632.89a58.71,58.71,0,0,1-8.16-2,56.69,56.69,0,0,1-9.15-4.11c-1-.57-4.47-2.84-5.07-3.32l-.25-.19,4.31-4.31,4.31-4.31,1.09.7a39.46,39.46,0,0,0,13.12,5.35l.63.12V633l-.25,0c-.14,0-.4,0-.58-.06Zm14.85-6v-6.09l.63-.12a39.68,39.68,0,0,0,12.94-5.23,7.87,7.87,0,0,1,1-.58c.17,0,8.59,8.53,8.53,8.64s-3.72,2.55-5,3.25a50.48,50.48,0,0,1-17.56,6.14L574,633v-6.08Zm28.85-17.65L598.55,605l.7-1.09a39.09,39.09,0,0,0,5.34-13.11l.13-.63H617l-.07.52a57.71,57.71,0,0,1-2,8.36,56.16,56.16,0,0,1-4.1,9.15c-.64,1.11-2.91,4.57-3.37,5.12l-.25.31-4.31-4.32Zm-76.73,3.39a52.61,52.61,0,0,1-7-13.65,57.71,57.71,0,0,1-2-8.36l-.07-.52h12.27l.13.63a39.7,39.7,0,0,0,5.22,12.93,9.76,9.76,0,0,1,.59,1c0,.1-8.47,8.57-8.58,8.57A2.74,2.74,0,0,1,526.13,612.65Zm38.18-1.55-1.2-.17A30.09,30.09,0,0,1,552.2,607a29.56,29.56,0,0,1-9.09-9.1,30.38,30.38,0,0,1-4-11,51.68,51.68,0,0,1,0-7.67,30.38,30.38,0,0,1,4-11,29.56,29.56,0,0,1,9.09-9.1,30.37,30.37,0,0,1,11-4,49.23,49.23,0,0,1,7.68,0,30.37,30.37,0,0,1,11,4,29.67,29.67,0,0,1,9.09,9.1,30.38,30.38,0,0,1,4,11,51.68,51.68,0,0,1,0,7.67,30.38,30.38,0,0,1-4,11,29.56,29.56,0,0,1-9.09,9.1,31.3,31.3,0,0,1-7.92,3.35,22.11,22.11,0,0,1-6.44.76c-1.54,0-2.94,0-3.13,0Zm-47.23-35.64a53.62,53.62,0,0,1,2-8.47,56.16,56.16,0,0,1,4.1-9.15c.71-1.23,3.08-4.83,3.26-4.94s8.75,8.46,8.75,8.64a9,9,0,0,1-.59,1,39.84,39.84,0,0,0-5.22,12.94l-.13.63H517l.08-.63Zm87.51,0a39.09,39.09,0,0,0-5.34-13.11l-.7-1.09,4.36-4.37,4.36-4.36.2.24c.48.61,2.75,4.08,3.32,5.07a56.16,56.16,0,0,1,4.1,9.15,53.62,53.62,0,0,1,2,8.47l.08.63H604.72l-.13-.63Zm-63.82-28.29-4.37-4.36.92-.66A50.66,50.66,0,0,1,557,533.52c1-.2,2.12-.4,2.44-.45L560,533v12.39l-.63.12a39.6,39.6,0,0,0-13.11,5.34l-1.09.69S543.17,549.58,540.77,547.17Zm46.83,3.59a39.58,39.58,0,0,0-13-5.25l-.63-.12V533l.58.07a50.48,50.48,0,0,1,17.56,6.14c1.29.74,4.78,3,5,3.3s-.4.72-4.17,4.49c-2.38,2.38-4.37,4.32-4.43,4.31A6.15,6.15,0,0,1,587.6,550.76Z" transform="translate(-517 -533)"/></svg>