<svg xmlns="http://www.w3.org/2000/svg" viewBox="0 0 72.12 72.13"><title>dislike-selected</title><path d="M54,74A36,36,0,0,0,79.47,84.54h0A36.06,36.06,0,1,0,43.41,48.47h0A36,36,0,0,0,54,74ZM87.14,38.83v0a.88.88,0,0,1,.9-.87h5.4a.88.88,0,0,1,.88.89V53.17h0a.88.88,0,0,1-.9.88H88a.88.88,0,0,1-.88-.89Zm-25,9.4a2.84,2.84,0,0,1,2.34-2.91,3.07,3.07,0,0,1-.27-1.26,3,3,0,0,1,.73-2,2.82,2.82,0,0,1,1.61-.89,3.24,3.24,0,0,1-.26-1.27v-.18A2.83,2.83,0,0,1,69.2,37h7a24.41,24.41,0,0,1,8.92,1.8l.6.21V53.35l-.8.39A12.56,12.56,0,0,0,81,56.27C79.59,57.69,78.6,61.7,78.37,64a1.87,1.87,0,0,1-1.87,1.72h-.11A3.88,3.88,0,0,1,73,62.92a9.74,9.74,0,0,1,.75-7.63H64.86a2.83,2.83,0,0,1-2.73-2.93,3.06,3.06,0,0,1,.79-2.07A3,3,0,0,1,62.13,48.23Z" transform="translate(-43.41 -12.41)"/></svg>