<svg xmlns="http://www.w3.org/2000/svg" viewBox="0 0 62.33 55.61"><title>dislike</title><path d="M51,37.3H61.43a1.73,1.73,0,0,0,1.74-1.74V7.8a1.72,1.72,0,0,0-1.74-1.73H51A1.71,1.71,0,0,0,49.29,7.8V35.56A1.72,1.72,0,0,0,51,37.3Z" transform="translate(-0.83 -4.2)"/><path d="M.83,34A5.5,5.5,0,0,0,6.48,39.7H23.29C20.89,44,20.18,50,21.85,54.45c1.23,3.25,3.57,5.15,6.6,5.34h.05a3.65,3.65,0,0,0,3.85-3.33c.43-4.38,2.35-12.14,5.1-14.89,2.32-2.32,4.3-3.29,7.59-4.9l1.55-.76c0-.12,0-.24,0-.36V8.09L45.4,7.68C40,5.81,35.28,4.2,28.11,4.2H14.52A5.49,5.49,0,0,0,8.87,9.89a6.11,6.11,0,0,0,.51,2.45,5.39,5.39,0,0,0-3.12,1.72,5.83,5.83,0,0,0-1.41,3.87,6.07,6.07,0,0,0,.51,2.44A5.5,5.5,0,0,0,.83,26a5.88,5.88,0,0,0,1.54,4A5.91,5.91,0,0,0,.83,34Z" transform="translate(-0.83 -4.2)"/></svg>