<svg xmlns="http://www.w3.org/2000/svg" viewBox="0 0 62.33 55.61"><title>like</title><path d="M13,26.7H2.57A1.73,1.73,0,0,0,.83,28.44V56.2a1.72,1.72,0,0,0,1.74,1.73H13a1.71,1.71,0,0,0,1.73-1.73V28.44A1.72,1.72,0,0,0,13,26.7Z" transform="translate(-0.83 -4.2)"/><path d="M63.17,30a5.49,5.49,0,0,0-5.65-5.68H40.71C43.11,20,43.82,14,42.15,9.55c-1.23-3.25-3.57-5.15-6.6-5.34h0a3.63,3.63,0,0,0-3.84,3.33c-.44,4.38-2.36,12.14-5.11,14.89-2.32,2.32-4.3,3.29-7.59,4.9l-1.55.76c0,.12,0,.24,0,.36V55.91l1.17.41C24,58.19,28.72,59.8,35.89,59.8H49.48a5.49,5.49,0,0,0,5.65-5.68,6.08,6.08,0,0,0-.51-2.45,5.43,5.43,0,0,0,3.12-1.73,5.83,5.83,0,0,0,1.41-3.87,6.07,6.07,0,0,0-.51-2.44A5.49,5.49,0,0,0,63.17,38a5.88,5.88,0,0,0-1.54-4A5.91,5.91,0,0,0,63.17,30Z" transform="translate(-0.83 -4.2)"/></svg>