<svg xmlns="http://www.w3.org/2000/svg" viewBox="0 0 72.12 72.13"><title>like-selected</title><path d="M105,23A36,36,0,0,0,79.47,12.41h0a36.06,36.06,0,1,0,36.06,36.06h0A36,36,0,0,0,105,23ZM71.8,58.12v0a.88.88,0,0,1-.9.87H65.5a.88.88,0,0,1-.88-.89V43.78h0a.88.88,0,0,1,.9-.88h5.4a.88.88,0,0,1,.88.89Zm25-9.4a2.84,2.84,0,0,1-2.34,2.91,3.07,3.07,0,0,1,.27,1.26,3,3,0,0,1-.73,2,2.82,2.82,0,0,1-1.61.89,3.24,3.24,0,0,1,.26,1.27v.18A2.83,2.83,0,0,1,89.74,60h-7a24.41,24.41,0,0,1-8.92-1.8l-.6-.21V43.6l.8-.39a12.56,12.56,0,0,0,3.92-2.53c1.42-1.42,2.41-5.43,2.64-7.69a1.87,1.87,0,0,1,1.87-1.72h.11A3.88,3.88,0,0,1,86,34a9.74,9.74,0,0,1-.75,7.63h8.87a2.83,2.83,0,0,1,2.73,2.93A3.06,3.06,0,0,1,96,46.66,3,3,0,0,1,96.81,48.72Z" transform="translate(-43.41 -12.41)"/></svg>