<svg xmlns="http://www.w3.org/2000/svg" viewBox="0 0 52.46 52.48"><title>like-selected-4</title><path d="M98,29.92a26.2,26.2,0,0,0-18.54-7.69h0A26.24,26.24,0,1,0,98,29.92ZM72.59,57.08a.77.77,0,0,1-.77.75H67.2a.76.76,0,0,1-.76-.76V44.79a.77.77,0,0,1,.77-.76h4.63a.77.77,0,0,1,.75.77ZM94,49a2.43,2.43,0,0,1-2,2.49,2.68,2.68,0,0,1,.22,1.08,2.56,2.56,0,0,1-.62,1.71,2.41,2.41,0,0,1-1.38.76,2.73,2.73,0,0,1,.23,1.09v.15a2.43,2.43,0,0,1-2.5,2.36h-6a21.1,21.1,0,0,1-7.63-1.54l-.52-.18V44.65l.69-.34a10.81,10.81,0,0,0,3.35-2.16c1.22-1.22,2.06-4.65,2.26-6.58a1.6,1.6,0,0,1,1.58-1.47h.11a3.3,3.3,0,0,1,2.92,2.35A8.28,8.28,0,0,1,84.06,43h7.59A2.43,2.43,0,0,1,94,45.49a2.65,2.65,0,0,1-.68,1.77A2.6,2.6,0,0,1,94,49Z" transform="translate(-53.24 -22.23)"/></svg>