<svg xmlns="http://www.w3.org/2000/svg" xmlns:xlink="http://www.w3.org/1999/xlink" viewBox="0 0 52.48 52.48"><defs><clipPath id="a" transform="translate(0.04 0)"><ellipse cx="26.22" cy="26.2" rx="23.7" ry="23.69" fill="none"/></clipPath></defs><title>like-selected-6</title><g clip-path="url(#a)"><path d="M44.76,7.69A26.19,26.19,0,0,0,26.22,0h0A26.24,26.24,0,1,0,44.76,7.69ZM19.35,34.85a.77.77,0,0,1-.77.75H14a.76.76,0,0,1-.76-.76h0V22.56A.77.77,0,0,1,14,21.8H18.6a.77.77,0,0,1,.75.77Zm21.41-8.08a2.42,2.42,0,0,1-2,2.49A2.68,2.68,0,0,1,39,30.34a2.54,2.54,0,0,1-.62,1.71,2.41,2.41,0,0,1-1.38.76,2.7,2.7,0,0,1,.23,1.09v.15a2.43,2.43,0,0,1-2.5,2.36h-6a21.24,21.24,0,0,1-7.63-1.54l-.52-.18V22.42l.69-.34a10.88,10.88,0,0,0,3.35-2.16c1.22-1.22,2.06-4.65,2.26-6.58a1.61,1.61,0,0,1,1.58-1.47h.11a3.3,3.3,0,0,1,2.92,2.35,8.28,8.28,0,0,1-.65,6.55h7.59a2.44,2.44,0,0,1,2.35,2.49A2.65,2.65,0,0,1,40.08,25,2.62,2.62,0,0,1,40.76,26.77Z" transform="translate(0.04 0)"/></g></svg>