<svg xmlns="http://www.w3.org/2000/svg" viewBox="0 0 850 305"><title>login-button</title><rect width="850" height="305" rx="152.5" style="fill:#1ed760"/><path d="M529.532,353.517c-26.994-16.031-71.52-17.5-97.289-9.684a7.832,7.832,0,1,1-4.547-14.99c29.581-8.98,78.755-7.245,109.831,11.2a7.833,7.833,0,0,1-8,13.472Zm-.884,23.744a6.532,6.532,0,0,1-8.98,2.15c-22.5-13.834-56.822-17.841-83.447-9.759a6.528,6.528,0,1,1-3.8-12.493c30.416-9.229,68.226-4.759,94.074,11.126a6.53,6.53,0,0,1,2.148,8.976Zm-10.247,22.8a5.215,5.215,0,0,1-7.176,1.737c-19.666-12.019-44.418-14.734-73.568-8.075a5.218,5.218,0,0,1-2.324-10.174c31.9-7.293,59.264-4.154,81.337,9.334a5.219,5.219,0,0,1,1.731,7.178ZM480,279.277a83.743,83.743,0,1,0,83.743,83.742A83.743,83.743,0,0,0,480,279.277Z" transform="translate(-250.465 -185.5)" style="fill:#fff"/><path d="M624.089,356.586c-14.459-3.448-17.034-5.868-17.034-10.952,0-4.805,4.524-8.037,11.25-8.037,6.52,0,12.984,2.455,19.763,7.509a.945.945,0,0,0,.715.174.933.933,0,0,0,.625-.386l7.06-9.952a.949.949,0,0,0-.18-1.288,42.715,42.715,0,0,0-27.769-9.62c-15.612,0-26.517,9.369-26.517,22.774,0,14.375,9.407,19.465,25.663,23.394,13.836,3.187,16.171,5.856,16.171,10.63,0,5.289-4.722,8.577-12.321,8.577-8.439,0-15.324-2.843-23.025-9.512a1,1,0,0,0-.7-.226.939.939,0,0,0-.649.334l-7.916,9.421a.94.94,0,0,0,.093,1.313A47.2,47.2,0,0,0,621.2,402.964c16.823,0,27.694-9.193,27.694-23.42,0-12.024-7.184-18.674-24.8-22.958Z" transform="translate(-250.465 -185.5)" style="fill:#fff"/><path d="M699.162,372.7c0,10.153-6.254,17.238-15.209,17.238-8.853,0-15.531-7.407-15.531-17.238s6.678-17.238,15.531-17.238c8.811,0,15.209,7.248,15.209,17.238ZM686.95,342.326c-7.292,0-13.273,2.872-18.205,8.757v-6.624a.949.949,0,0,0-.947-.949H654.852a.948.948,0,0,0-.946.949v73.6a.948.948,0,0,0,.946.949H667.8a.949.949,0,0,0,.947-.949V394.829a23.255,23.255,0,0,0,18.205,8.24c13.549,0,27.265-10.43,27.265-30.368S700.5,342.326,686.95,342.326Z" transform="translate(-250.465 -185.5)" style="fill:#fff"/><path d="M749.373,390.045c-9.281,0-16.278-7.457-16.278-17.344,0-9.929,6.755-17.134,16.064-17.134,9.341,0,16.385,7.457,16.385,17.351,0,9.927-6.8,17.127-16.171,17.127Zm0-47.719c-17.449,0-31.119,13.436-31.119,30.592,0,16.969,13.576,30.264,30.9,30.264,17.511,0,31.223-13.391,31.223-30.481,0-17.033-13.618-30.375-31.009-30.375Z" transform="translate(-250.465 -185.5)" style="fill:#fff"/><path d="M817.644,343.51H803.4V328.944a.946.946,0,0,0-.945-.948H789.507a.95.95,0,0,0-.95.948V343.51h-6.225a.946.946,0,0,0-.943.949v11.127a.946.946,0,0,0,.943.948h6.225v28.792c0,11.635,5.791,17.534,17.212,17.534a23.617,23.617,0,0,0,12.128-3.018.945.945,0,0,0,.479-.821v-10.6a.95.95,0,0,0-1.372-.85,16.315,16.315,0,0,1-7.6,1.834c-4.153,0-6.007-1.885-6.007-6.112V356.534h14.247a.946.946,0,0,0,.944-.948V344.459a.946.946,0,0,0-.944-.949Z" transform="translate(-250.465 -185.5)" style="fill:#fff"/><path d="M867.281,343.567v-1.789c0-5.264,2.018-7.61,6.544-7.61a21.844,21.844,0,0,1,7.295,1.346.947.947,0,0,0,1.245-.9V323.7a.948.948,0,0,0-.669-.909,35.535,35.535,0,0,0-10.761-1.546c-11.959,0-18.279,6.734-18.279,19.467v2.74h-6.22a.952.952,0,0,0-.95.948v11.184a.952.952,0,0,0,.95.948h6.22v44.41a.946.946,0,0,0,.944.948h12.946a.95.95,0,0,0,.949-.948v-44.41h12.088l18.517,44.4c-2.1,4.665-4.169,5.593-6.991,5.593a14.932,14.932,0,0,1-7.139-2.025.972.972,0,0,0-.754-.071.959.959,0,0,0-.56.512l-4.388,9.627a.941.941,0,0,0,.407,1.225,27.265,27.265,0,0,0,13.827,3.54c9.56,0,14.844-4.454,19.5-16.434l22.461-58.04a.946.946,0,0,0-.879-1.292H920.109a.951.951,0,0,0-.9.635L905.405,383.64l-15.123-39.464a.943.943,0,0,0-.884-.609Z" transform="translate(-250.465 -185.5)" style="fill:#fff"/><path d="M838.505,343.51H825.558a.95.95,0,0,0-.948.949v56.485a.949.949,0,0,0,.948.948h12.947a.949.949,0,0,0,.948-.948V344.459a.95.95,0,0,0-.948-.949Z" transform="translate(-250.465 -185.5)" style="fill:#fff"/><path d="M832.1,317.791a9.285,9.285,0,1,0,9.285,9.282,9.287,9.287,0,0,0-9.285-9.282Z" transform="translate(-250.465 -185.5)" style="fill:#fff"/><path d="M946.049,349.129h-2.372v3.025h2.372c1.184,0,1.891-.58,1.891-1.514,0-.984-.707-1.511-1.891-1.511Zm1.538,4.315,2.577,3.608h-2.173l-2.32-3.309h-1.994v3.309h-1.819v-9.563h4.265c2.221,0,3.683,1.136,3.683,3.05a2.853,2.853,0,0,1-2.219,2.905Zm-2.02-9.138a8.227,8.227,0,1,0,8.153,8.2,8.147,8.147,0,0,0-8.153-8.2Zm-.048,17.365a9.136,9.136,0,1,1,9.159-9.164,9.075,9.075,0,0,1-9.159,9.164Z" transform="translate(-250.465 -185.5)" style="fill:#fff"/><path d="M620.371,274.281l17.64.036a2.213,2.213,0,0,1,2.232,2.232,2.261,2.261,0,0,1-.648,1.639,2.009,2.009,0,0,1-1.584.629H618.1a2.211,2.211,0,0,1-1.6-.648,2.124,2.124,0,0,1-.666-1.584v-41.58a2.167,2.167,0,0,1,.666-1.62,2.3,2.3,0,0,1,3.2,0,2.171,2.171,0,0,1,.666,1.62Z" transform="translate(-250.465 -185.5)" style="fill:#fff"/><path d="M643.608,255.4a17.149,17.149,0,0,1,3.691-5.472,17.536,17.536,0,0,1,5.472-3.672,17.145,17.145,0,0,1,13.337,0,17.151,17.151,0,0,1,9.109,9.144,16.883,16.883,0,0,1,1.349,6.714,16.655,16.655,0,0,1-1.349,6.66,17.19,17.19,0,0,1-9.109,9.126,17.133,17.133,0,0,1-13.337,0,17.533,17.533,0,0,1-5.472-3.671,17.2,17.2,0,0,1-3.691-5.455,16.655,16.655,0,0,1-1.349-6.66A16.883,16.883,0,0,1,643.608,255.4Zm4.177,11.592a12.7,12.7,0,0,0,6.678,6.715,12.756,12.756,0,0,0,9.935,0,12.971,12.971,0,0,0,4.015-2.719,12.512,12.512,0,0,0,2.682-4,12.331,12.331,0,0,0,.971-4.878,12.566,12.566,0,0,0-3.653-8.946,12.749,12.749,0,0,0-4.015-2.7,12.879,12.879,0,0,0-9.9,0,12.585,12.585,0,0,0-6.714,6.714,12.349,12.349,0,0,0-.99,4.932A12.121,12.121,0,0,0,647.785,266.991Z" transform="translate(-250.465 -185.5)" style="fill:#fff"/><path d="M714.006,274.821v.217a18.234,18.234,0,0,1-1.386,7,16.908,16.908,0,0,1-3.654,5.471,16.319,16.319,0,0,1-5.4,3.547,17.677,17.677,0,0,1-12.923.071,14.894,14.894,0,0,1-5.22-3.348,2.525,2.525,0,0,1-.828-1.818,2.168,2.168,0,0,1,.756-1.673,2.415,2.415,0,0,1,1.026-.577,2.083,2.083,0,0,1,.936,0,2.765,2.765,0,0,1,.845.36,8.469,8.469,0,0,1,.757.54,12.09,12.09,0,0,0,3.96,2.376,12.732,12.732,0,0,0,4.5.72,12.057,12.057,0,0,0,4.733-1.008,11.917,11.917,0,0,0,3.853-2.681,12.5,12.5,0,0,0,2.573-4.051,13.738,13.738,0,0,0,.937-5.148v-1.08a17.5,17.5,0,0,1-5.6,4.032,17.216,17.216,0,0,1-13.662.126,17.56,17.56,0,0,1-5.473-3.671,17.191,17.191,0,0,1-3.689-5.455,16.622,16.622,0,0,1-1.351-6.66,16.85,16.85,0,0,1,1.351-6.714,17.144,17.144,0,0,1,3.689-5.472,17.563,17.563,0,0,1,5.473-3.672,17.227,17.227,0,0,1,13.662.126,17.29,17.29,0,0,1,5.6,4.068v-3.312a2.107,2.107,0,0,1,.666-1.6,2.352,2.352,0,0,1,3.2,0,2.115,2.115,0,0,1,.666,1.6Zm-29.773-12.708a12.122,12.122,0,0,0,.991,4.878,12.9,12.9,0,0,0,2.681,4,12.746,12.746,0,0,0,4,2.719,12.761,12.761,0,0,0,9.937,0,12.581,12.581,0,0,0,6.66-6.715,12.332,12.332,0,0,0,.972-4.878,12.508,12.508,0,0,0-12.6-12.635,12.372,12.372,0,0,0-4.932.989,12.593,12.593,0,0,0-6.714,6.714A12.35,12.35,0,0,0,684.233,262.113Z" transform="translate(-250.465 -185.5)" style="fill:#fff"/><path d="M737.765,235.186a2.6,2.6,0,0,1,1.908-.792,2.762,2.762,0,0,1,1.979.792,2.625,2.625,0,0,1,.828,1.98,2.561,2.561,0,0,1-.828,1.889,2.73,2.73,0,0,1-1.979.81,2.57,2.57,0,0,1-1.908-.81,2.613,2.613,0,0,1-.792-1.889A2.681,2.681,0,0,1,737.765,235.186Zm4.212,41.327a2.227,2.227,0,0,1-.666,1.638,2.261,2.261,0,0,1-3.205,0,2.223,2.223,0,0,1-.666-1.638v-29.34a2.156,2.156,0,0,1,.685-1.6,2.24,2.24,0,0,1,1.619-.666,2.125,2.125,0,0,1,1.584.666,2.215,2.215,0,0,1,.649,1.6Z" transform="translate(-250.465 -185.5)" style="fill:#fff"/><path d="M778.516,276.585a2.215,2.215,0,0,1-2.268,2.269,2.159,2.159,0,0,1-1.584-.648,2.2,2.2,0,0,1-.648-1.621V261.357q-.072-5.759-2.574-8.837a8.519,8.519,0,0,0-7-3.079,9.966,9.966,0,0,0-4.123.864,10.668,10.668,0,0,0-3.383,2.394,11.673,11.673,0,0,0-2.323,3.618,12.682,12.682,0,0,0-.935,4.5v15.7a2.227,2.227,0,0,1-.666,1.638,2.26,2.26,0,0,1-3.2,0,2.219,2.219,0,0,1-.666-1.638v-29.34a2.155,2.155,0,0,1,.684-1.6,2.24,2.24,0,0,1,1.619-.666,2.124,2.124,0,0,1,1.584.666,2.215,2.215,0,0,1,.649,1.6v3.852a17.243,17.243,0,0,1,5.022-4.41,12.219,12.219,0,0,1,6.21-1.674,13.245,13.245,0,0,1,5.6,1.152,12.108,12.108,0,0,1,4.284,3.294,15.018,15.018,0,0,1,2.736,5.184,23.381,23.381,0,0,1,.99,6.786v15.228Z" transform="translate(-250.465 -185.5)" style="fill:#fff"/><path d="M821.607,253.978l3.348-7.668a2.406,2.406,0,0,1,1.26-1.243,2.03,2.03,0,0,1,1.728.018,2.184,2.184,0,0,1,1.224,1.26,2.355,2.355,0,0,1-.072,1.8l-5.039,11.412L829.2,271.4l10.908-25.091a2.4,2.4,0,0,1,1.26-1.243,2.032,2.032,0,0,1,1.729.018,2.186,2.186,0,0,1,1.223,1.26,2.355,2.355,0,0,1-.072,1.8l-12.96,29.3a2.175,2.175,0,0,1-.432.648,2.522,2.522,0,0,1-.684.54,2.327,2.327,0,0,1-.827.18,2.548,2.548,0,0,1-1.08-.18,1.857,1.857,0,0,1-.757-.54,3.11,3.11,0,0,1-.4-.648l-5.471-12.384-5.473,12.384a1.423,1.423,0,0,1-.2.343c-.085.107-.162.21-.235.305a1.9,1.9,0,0,1-.719.54,2.337,2.337,0,0,1-.829.18,2.553,2.553,0,0,1-1.08-.18,1.915,1.915,0,0,1-.719-.5,2.068,2.068,0,0,1-.433-.684L799,248.109a2.2,2.2,0,0,1-.054-1.764,2.264,2.264,0,0,1,1.206-1.26,2.078,2.078,0,0,1,1.728-.036,2.326,2.326,0,0,1,1.261,1.261L814.047,271.4l5.148-11.843-5.04-11.449a2.2,2.2,0,0,1-.053-1.764,2.258,2.258,0,0,1,1.206-1.26,2.076,2.076,0,0,1,1.727-.036,2.321,2.321,0,0,1,1.26,1.261Z" transform="translate(-250.465 -185.5)" style="fill:#fff"/><path d="M849.146,235.186a2.6,2.6,0,0,1,1.909-.792,2.764,2.764,0,0,1,1.979.792,2.622,2.622,0,0,1,.828,1.98,2.558,2.558,0,0,1-.828,1.889,2.731,2.731,0,0,1-1.979.81,2.574,2.574,0,0,1-1.909-.81,2.617,2.617,0,0,1-.792-1.889A2.685,2.685,0,0,1,849.146,235.186Zm4.212,41.327a2.219,2.219,0,0,1-.666,1.638,2.26,2.26,0,0,1-3.2,0,2.223,2.223,0,0,1-.666-1.638v-29.34a2.16,2.16,0,0,1,.685-1.6,2.241,2.241,0,0,1,1.62-.666,2.129,2.129,0,0,1,1.584.666,2.217,2.217,0,0,1,.647,1.6Z" transform="translate(-250.465 -185.5)" style="fill:#fff"/><path d="M868.189,244.941h4.789a2.2,2.2,0,0,1,1.62.648,2.156,2.156,0,0,1,.648,1.584,2.245,2.245,0,0,1-.648,1.657,2.2,2.2,0,0,1-1.62.648h-4.789v27.107a2.12,2.12,0,0,1-.666,1.584,2.209,2.209,0,0,1-1.6.648,2.214,2.214,0,0,1-2.233-2.232V249.478h-3.96a2.18,2.18,0,0,1-1.6-.666,2.229,2.229,0,0,1-.666-1.639,2.127,2.127,0,0,1,.666-1.584,2.211,2.211,0,0,1,1.6-.648h3.96v-9.972a2.141,2.141,0,0,1,.649-1.6,2.191,2.191,0,0,1,1.584-.63,2.25,2.25,0,0,1,1.6.63,2.107,2.107,0,0,1,.666,1.6Z" transform="translate(-250.465 -185.5)" style="fill:#fff"/><path d="M883.992,251.025a17.234,17.234,0,0,1,5.023-4.41,12.217,12.217,0,0,1,6.21-1.674,13.154,13.154,0,0,1,5.633,1.17,12.208,12.208,0,0,1,4.285,3.33,15.251,15.251,0,0,1,2.736,5.221,22.953,22.953,0,0,1,.953,6.839v15.084a2.213,2.213,0,0,1-2.268,2.269,2.159,2.159,0,0,1-1.584-.648,2.206,2.206,0,0,1-.648-1.621V261.538q0-5.834-2.519-8.965a8.549,8.549,0,0,0-7.056-3.132,9.948,9.948,0,0,0-4.122.864,10.687,10.687,0,0,0-3.385,2.394,11.65,11.65,0,0,0-2.321,3.618,12.661,12.661,0,0,0-.937,4.5v15.7a2.219,2.219,0,0,1-.666,1.638,2.26,2.26,0,0,1-3.2,0,2.223,2.223,0,0,1-.666-1.638V235.042a2.23,2.23,0,0,1,.666-1.639,2.283,2.283,0,0,1,3.223,0,2.266,2.266,0,0,1,.647,1.639Z" transform="translate(-250.465 -185.5)" style="fill:#fff"/><rect x="141.535" y="42.5" width="567" height="220" style="fill:none"/></svg>