<svg xmlns="http://www.w3.org/2000/svg" width="179.87" height="32" viewBox="0 0 179.87 32"><title>login-button-rectangular-opaque</title><rect width="179.87" height="32" rx="3" fill="#1ed760"/><path d="M569,426.92c-3.38-2-9-2.19-12.21-1.21a1,1,0,0,1-1.22-.66,1,1,0,0,1,.65-1.22c3.72-1.13,9.89-.91,13.79,1.4a1,1,0,0,1-1,1.69Zm-.11,3a.82.82,0,0,1-1.13.27A13.79,13.79,0,0,0,557.27,429a.82.82,0,0,1-.47-1.57,15.28,15.28,0,0,1,11.8,1.4.8.8,0,0,1,.27,1.12Zm-1.28,2.86a.65.65,0,0,1-.9.22c-2.47-1.51-5.58-1.85-9.24-1a.66.66,0,0,1-.29-1.28c4-.91,7.44-.52,10.21,1.17a.66.66,0,0,1,.22.9Zm-4.82-15.15a10.51,10.51,0,1,0,10.51,10.5,10.5,10.5,0,0,0-10.51-10.5Z" transform="translate(-461.79 -412.24)" fill="#fff"/><path d="M580.85,427.31c-1.82-.44-2.14-.74-2.14-1.38s.57-1,1.41-1a4.1,4.1,0,0,1,2.48.95.15.15,0,0,0,.09,0,.14.14,0,0,0,.08-.05l.89-1.25a.12.12,0,0,0,0-.16,5.36,5.36,0,0,0-3.48-1.21c-2,0-3.33,1.18-3.33,2.86S578,428.52,580,429c1.74.4,2,.73,2,1.33s-.59,1.08-1.54,1.08a4.15,4.15,0,0,1-2.89-1.2.16.16,0,0,0-.09,0,.14.14,0,0,0-.08.05l-1,1.18a.11.11,0,0,0,0,.16,5.88,5.88,0,0,0,4,1.54c2.11,0,3.47-1.16,3.47-2.94,0-1.51-.9-2.35-3.11-2.88Z" transform="translate(-461.79 -412.24)" fill="#fff"/><path d="M590.27,429.33a2,2,0,0,1-1.91,2.16,2.17,2.17,0,0,1,0-4.32,2,2,0,0,1,1.91,2.16Zm-1.53-3.81a2.85,2.85,0,0,0-2.29,1.1v-.83a.12.12,0,0,0-.12-.12h-1.62a.12.12,0,0,0-.12.12V435a.12.12,0,0,0,.12.12h1.62a.12.12,0,0,0,.12-.12v-2.91a2.93,2.93,0,0,0,2.29,1,3.83,3.83,0,0,0,0-7.62Z" transform="translate(-461.79 -412.24)" fill="#fff"/><path d="M596.57,431.51a2.07,2.07,0,0,1-2-2.18,2,2,0,0,1,2-2.15,2.07,2.07,0,0,1,2.06,2.18,2,2,0,0,1-2,2.15Zm0-6a3.82,3.82,0,1,0,3.89,3.81,3.82,3.82,0,0,0-3.89-3.81Z" transform="translate(-461.79 -412.24)" fill="#fff"/><path d="M605.14,425.67h-1.79v-1.83a.12.12,0,0,0-.12-.12h-1.62a.12.12,0,0,0-.12.12v1.83h-.78a.12.12,0,0,0-.12.12v1.39a.12.12,0,0,0,.12.12h.78v3.61a1.93,1.93,0,0,0,2.16,2.2,3.06,3.06,0,0,0,1.52-.37.14.14,0,0,0,.06-.11V431.3a.11.11,0,0,0-.06-.1.11.11,0,0,0-.11,0,2.19,2.19,0,0,1-1,.23c-.52,0-.75-.24-.75-.77V427.3h1.79a.12.12,0,0,0,.12-.12v-1.39a.12.12,0,0,0-.12-.12Z" transform="translate(-461.79 -412.24)" fill="#fff"/><path d="M611.37,425.67v-.22c0-.66.25-1,.82-1a2.72,2.72,0,0,1,.91.17.11.11,0,0,0,.16-.11v-1.37a.11.11,0,0,0-.08-.11,4.37,4.37,0,0,0-1.35-.2c-1.51,0-2.3.85-2.3,2.45v.34h-.78a.12.12,0,0,0-.12.12v1.4a.12.12,0,0,0,.12.12h.78v5.57a.12.12,0,0,0,.12.12h1.62a.12.12,0,0,0,.12-.12V427.3h1.52l2.32,5.57c-.26.59-.52.7-.87.7a1.86,1.86,0,0,1-.9-.25.1.1,0,0,0-.09,0,.12.12,0,0,0-.07.07l-.55,1.2a.12.12,0,0,0,0,.16,3.4,3.4,0,0,0,1.73.44c1.2,0,1.86-.56,2.45-2.06l2.82-7.28a.14.14,0,0,0,0-.11.12.12,0,0,0-.1-.06H618a.15.15,0,0,0-.12.08l-1.73,4.95-1.9-4.95a.11.11,0,0,0-.11-.08Z" transform="translate(-461.79 -412.24)" fill="#fff"/><path d="M607.76,425.67h-1.63a.12.12,0,0,0-.12.12v7.08a.12.12,0,0,0,.12.12h1.63a.11.11,0,0,0,.11-.12v-7.08a.11.11,0,0,0-.11-.12Z" transform="translate(-461.79 -412.24)" fill="#fff"/><path d="M607,422.44a1.17,1.17,0,1,0,1.17,1.16,1.16,1.16,0,0,0-1.17-1.16Z" transform="translate(-461.79 -412.24)" fill="#fff"/><path d="M621.25,426.37H621v.38h.3c.15,0,.24-.07.24-.19s-.09-.19-.24-.19Zm.19.54.33.46h-.27l-.3-.42H621v.42h-.22v-1.2h.53c.28,0,.46.14.46.38a.34.34,0,0,1-.28.36Zm-.25-1.14a1,1,0,1,0,1,1,1,1,0,0,0-1-1Zm0,2.18a1.15,1.15,0,1,1,1.15-1.15,1.14,1.14,0,0,1-1.15,1.15Z" transform="translate(-461.79 -412.24)" fill="#fff"/><path d="M483.45,433.11V422h1v10.12h4.24v.95Z" transform="translate(-461.79 -412.24)" fill="#fff"/><path d="M495.05,431.84a2.2,2.2,0,0,1-.5.74,2.3,2.3,0,0,1-1.64.68h-.63a2.33,2.33,0,0,1-2.15-1.42,2.26,2.26,0,0,1-.18-.9v-3.57a2.3,2.3,0,0,1,.68-1.64,2.3,2.3,0,0,1,1.65-.68h.63a2.3,2.3,0,0,1,1.64.68,2.11,2.11,0,0,1,.5.74,2.26,2.26,0,0,1,.18.9v3.57A2.26,2.26,0,0,1,495.05,431.84Zm-.77-4.52a1.4,1.4,0,0,0-.1-.54,1.49,1.49,0,0,0-.3-.44,1.37,1.37,0,0,0-1-.4h-.63a1.41,1.41,0,0,0-.54.11,1.31,1.31,0,0,0-.73.73,1.41,1.41,0,0,0-.11.54V431a1.41,1.41,0,0,0,.11.54,1.3,1.3,0,0,0,.29.43,1.32,1.32,0,0,0,.44.3,1.41,1.41,0,0,0,.54.11h.63a1.41,1.41,0,0,0,.54-.11,1.28,1.28,0,0,0,.43-.3,1.33,1.33,0,0,0,.3-.43,1.4,1.4,0,0,0,.1-.54Z" transform="translate(-461.79 -412.24)" fill="#fff"/><path d="M502.31,435a2,2,0,0,1-.5.69,2.2,2.2,0,0,1-.74.44,2.44,2.44,0,0,1-.9.16h-.4a2.44,2.44,0,0,1-.9-.16,2.2,2.2,0,0,1-.74-.44,2,2,0,0,1-.5-.69,2.1,2.1,0,0,1-.18-.88v0a2.15,2.15,0,0,1,.17-.85,2.22,2.22,0,0,1,.46-.67,1.78,1.78,0,0,1-.59-.6,1.76,1.76,0,0,1-.22-.85,1.72,1.72,0,0,1,.18-.78,1.54,1.54,0,0,1,.49-.58,2.34,2.34,0,0,1-.81-1.77v-.6a2.26,2.26,0,0,1,.18-.9,2.41,2.41,0,0,1,.5-.74,2.3,2.3,0,0,1,1.65-.68h.39a2.17,2.17,0,0,1,1.07.26,2.26,2.26,0,0,1,.81.69l.52-.8h.32V428a2.26,2.26,0,0,1-.18.9,2.32,2.32,0,0,1-2.15,1.42h-1.37a.67.67,0,0,0-.31.07.9.9,0,0,0-.26.17.78.78,0,0,0-.17.26.83.83,0,0,0,0,.62.76.76,0,0,0,.43.43.81.81,0,0,0,.31.06h1.3a2.66,2.66,0,0,1,.9.16,2.38,2.38,0,0,1,.74.44,2.07,2.07,0,0,1,.68,1.57v0A2.1,2.1,0,0,1,502.31,435Zm-.68-7.66a1.41,1.41,0,0,0-.11-.54,1.32,1.32,0,0,0-.3-.44,1.46,1.46,0,0,0-.44-.29,1.41,1.41,0,0,0-.54-.11h-.78a1.41,1.41,0,0,0-.54.11,1.31,1.31,0,0,0-.73.73,1.41,1.41,0,0,0-.11.54v.7a1.37,1.37,0,0,0,.4,1,1.49,1.49,0,0,0,.44.3,1.4,1.4,0,0,0,.54.1h.78a1.4,1.4,0,0,0,.54-.1,1.49,1.49,0,0,0,.44-.3,1.28,1.28,0,0,0,.3-.43,1.41,1.41,0,0,0,.11-.54Zm0,6.71a1.24,1.24,0,0,0-.11-.52,1.1,1.1,0,0,0-.29-.38,1.55,1.55,0,0,0-.44-.24,1.61,1.61,0,0,0-.54-.08h-.48a1.61,1.61,0,0,0-.54.08,1.55,1.55,0,0,0-.44.24,1.1,1.1,0,0,0-.29.38,1.24,1.24,0,0,0-.11.52v.12a1.19,1.19,0,0,0,.11.51,1.1,1.1,0,0,0,.29.38,1.18,1.18,0,0,0,.44.24,1.61,1.61,0,0,0,.54.09h.48a1.61,1.61,0,0,0,.54-.09,1.18,1.18,0,0,0,.44-.24,1.1,1.1,0,0,0,.29-.38,1.19,1.19,0,0,0,.11-.51Z" transform="translate(-461.79 -412.24)" fill="#fff"/><path d="M508.19,423.3V422h1.1v1.26Zm.08,9.81V425.2h1v7.91Z" transform="translate(-461.79 -412.24)" fill="#fff"/><path d="M515.76,433.11v-5.79a1.24,1.24,0,0,0-.11-.54,1.46,1.46,0,0,0-.29-.44,1.35,1.35,0,0,0-.44-.29,1.32,1.32,0,0,0-.53-.11h-.64a1.36,1.36,0,0,0-.53.11,1.31,1.31,0,0,0-.73.73,1.41,1.41,0,0,0-.11.54v5.79h-.95V425.2h.32l.52.8a2.26,2.26,0,0,1,.81-.69,2.17,2.17,0,0,1,1.07-.26h.24a2.26,2.26,0,0,1,.9.18,2.36,2.36,0,0,1,.74.5,2.3,2.3,0,0,1,.68,1.64v5.74Z" transform="translate(-461.79 -412.24)" fill="#fff"/><path d="M528.9,433.11h-.51l-1.86-6,0-.41,0,.41-1.85,6h-.53l-2.64-7.91h1l1.88,6,0,.41,0-.41,1.86-6h.57l1.84,6,0,.41,0-.41,1.89-6h1Z" transform="translate(-461.79 -412.24)" fill="#fff"/><path d="M532.89,423.3V422H534v1.26Zm.08,9.81V425.2h.95v7.91Z" transform="translate(-461.79 -412.24)" fill="#fff"/><path d="M539,433.11a2.26,2.26,0,0,1-.82-.16,2.15,2.15,0,0,1-.66-.45,2.08,2.08,0,0,1-.45-.67,2,2,0,0,1-.17-.81V426.1H535.5v-.9h1.42v-1.9l1-.15v2.05h2v.9h-2v5a1,1,0,0,0,.09.44,1.23,1.23,0,0,0,.61.61,1.33,1.33,0,0,0,.45.08h.86v.91Z" transform="translate(-461.79 -412.24)" fill="#fff"/><path d="M546,433.11v-5.79a1.41,1.41,0,0,0-.11-.54,1.31,1.31,0,0,0-.73-.73,1.41,1.41,0,0,0-.54-.11H544a1.37,1.37,0,0,0-1,.4,1.49,1.49,0,0,0-.3.44,1.4,1.4,0,0,0-.1.54v5.79h-1V422h1v3.83a2.23,2.23,0,0,1,.78-.61,2.3,2.3,0,0,1,1-.21h.24a2.3,2.3,0,0,1,1.65.68,2.41,2.41,0,0,1,.5.74,2.26,2.26,0,0,1,.18.9v5.74Z" transform="translate(-461.79 -412.24)" fill="#fff"/></svg>