<svg xmlns="http://www.w3.org/2000/svg" viewBox="0 0 1281 255"><title>login-button-horizontal</title><rect width="1281" height="255" rx="127.5" style="fill:#1ed760"/><path d="M1092.532,328.517c-26.994-16.031-71.52-17.5-97.289-9.684a7.832,7.832,0,1,1-4.547-14.99c29.581-8.98,78.755-7.245,109.831,11.2a7.833,7.833,0,0,1-8,13.472Zm-.884,23.744a6.532,6.532,0,0,1-8.98,2.15c-22.5-13.834-56.822-17.841-83.447-9.759a6.528,6.528,0,1,1-3.795-12.493c30.416-9.229,68.226-4.759,94.074,11.126a6.53,6.53,0,0,1,2.148,8.976Zm-10.247,22.8a5.215,5.215,0,0,1-7.176,1.737c-19.666-12.019-44.418-14.734-73.568-8.075a5.218,5.218,0,0,1-2.324-10.174c31.9-7.293,59.264-4.154,81.337,9.334a5.219,5.219,0,0,1,1.731,7.178ZM1043,254.277a83.743,83.743,0,1,0,83.743,83.742A83.743,83.743,0,0,0,1043,254.277Z" transform="translate(-314.543 -211.5)" style="fill:#fff"/><path d="M1187.089,331.586c-14.459-3.448-17.034-5.868-17.034-10.952,0-4.805,4.524-8.037,11.25-8.037,6.52,0,12.984,2.455,19.763,7.509a.945.945,0,0,0,.715.174.933.933,0,0,0,.625-.386l7.06-9.952a.949.949,0,0,0-.18-1.288,42.715,42.715,0,0,0-27.769-9.62c-15.612,0-26.517,9.369-26.517,22.774,0,14.375,9.407,19.465,25.663,23.394,13.836,3.187,16.171,5.856,16.171,10.63,0,5.289-4.722,8.577-12.321,8.577-8.439,0-15.324-2.843-23.025-9.512a1,1,0,0,0-.695-.226.939.939,0,0,0-.649.334l-7.916,9.421a.94.94,0,0,0,.093,1.313,47.2,47.2,0,0,0,31.872,12.225c16.823,0,27.694-9.193,27.694-23.42,0-12.024-7.184-18.674-24.8-22.958Z" transform="translate(-314.543 -211.5)" style="fill:#fff"/><path d="M1262.162,347.7c0,10.153-6.254,17.238-15.209,17.238-8.853,0-15.531-7.407-15.531-17.238s6.678-17.238,15.531-17.238c8.811,0,15.209,7.248,15.209,17.238Zm-12.212-30.375c-7.292,0-13.273,2.872-18.205,8.757v-6.624a.949.949,0,0,0-.947-.949h-12.946a.948.948,0,0,0-.946.949v73.6a.948.948,0,0,0,.946.949H1230.8a.949.949,0,0,0,.947-.949V369.829a23.255,23.255,0,0,0,18.205,8.24c13.549,0,27.265-10.43,27.265-30.368s-13.716-30.375-27.265-30.375Z" transform="translate(-314.543 -211.5)" style="fill:#fff"/><path d="M1312.373,365.045c-9.281,0-16.278-7.457-16.278-17.344,0-9.929,6.755-17.134,16.064-17.134,9.341,0,16.385,7.457,16.385,17.351,0,9.927-6.8,17.127-16.171,17.127Zm0-47.719c-17.449,0-31.119,13.436-31.119,30.592,0,16.969,13.576,30.264,30.905,30.264,17.511,0,31.223-13.391,31.223-30.481,0-17.033-13.618-30.375-31.009-30.375Z" transform="translate(-314.543 -211.5)" style="fill:#fff"/><path d="M1380.644,318.51H1366.4V303.944a.946.946,0,0,0-.945-.948h-12.945a.95.95,0,0,0-.95.948V318.51h-6.225a.946.946,0,0,0-.943.949v11.127a.946.946,0,0,0,.943.948h6.225v28.792c0,11.635,5.791,17.534,17.212,17.534a23.617,23.617,0,0,0,12.128-3.018.945.945,0,0,0,.479-.821v-10.6a.95.95,0,0,0-1.372-.85,16.315,16.315,0,0,1-7.6,1.834c-4.153,0-6.007-1.885-6.007-6.112V331.534h14.247a.946.946,0,0,0,.944-.948V319.459a.946.946,0,0,0-.944-.949Z" transform="translate(-314.543 -211.5)" style="fill:#fff"/><path d="M1430.281,318.567v-1.789c0-5.264,2.018-7.61,6.544-7.61a21.844,21.844,0,0,1,7.295,1.346.947.947,0,0,0,1.245-.9V298.7a.948.948,0,0,0-.669-.909,35.535,35.535,0,0,0-10.761-1.546c-11.959,0-18.279,6.734-18.279,19.467v2.74h-6.22a.952.952,0,0,0-.95.948v11.184a.952.952,0,0,0,.95.948h6.22v44.41a.946.946,0,0,0,.944.948h12.946a.95.95,0,0,0,.949-.948v-44.41h12.088l18.517,44.4c-2.1,4.665-4.169,5.593-6.991,5.593a14.932,14.932,0,0,1-7.139-2.025.972.972,0,0,0-.754-.071.959.959,0,0,0-.56.512l-4.388,9.627a.941.941,0,0,0,.407,1.225,27.265,27.265,0,0,0,13.827,3.54c9.56,0,14.844-4.454,19.5-16.434l22.461-58.04a.946.946,0,0,0-.879-1.292h-13.478a.951.951,0,0,0-.9.635l-13.807,39.438-15.123-39.464a.943.943,0,0,0-.884-.609Z" transform="translate(-314.543 -211.5)" style="fill:#fff"/><path d="M1401.505,318.51h-12.947a.95.95,0,0,0-.948.949v56.485a.949.949,0,0,0,.948.948h12.947a.949.949,0,0,0,.948-.948V319.459a.95.95,0,0,0-.948-.949Z" transform="translate(-314.543 -211.5)" style="fill:#fff"/><path d="M1395.1,292.791a9.285,9.285,0,1,0,9.285,9.282,9.287,9.287,0,0,0-9.285-9.282Z" transform="translate(-314.543 -211.5)" style="fill:#fff"/><path d="M1509.049,324.129h-2.372v3.025h2.372c1.184,0,1.891-.58,1.891-1.514,0-.984-.707-1.511-1.891-1.511Zm1.538,4.315,2.577,3.608h-2.173l-2.32-3.309h-1.994v3.309h-1.819v-9.563h4.265c2.221,0,3.683,1.136,3.683,3.05a2.853,2.853,0,0,1-2.219,2.905Zm-2.02-9.138a8.227,8.227,0,1,0,8.153,8.2,8.147,8.147,0,0,0-8.153-8.2Zm-.048,17.365a9.136,9.136,0,1,1,9.159-9.164,9.075,9.075,0,0,1-9.159,9.164Z" transform="translate(-314.543 -211.5)" style="fill:#fff"/><path d="M428.283,369.879l30.87.063a3.872,3.872,0,0,1,3.907,3.906,3.954,3.954,0,0,1-1.134,2.867,3.522,3.522,0,0,1-2.773,1.1H424.314a3.878,3.878,0,0,1-2.8-1.133,3.717,3.717,0,0,1-1.165-2.773V301.146a3.785,3.785,0,0,1,1.165-2.834,4.03,4.03,0,0,1,5.607,0,3.789,3.789,0,0,1,1.165,2.834Z" transform="translate(-314.543 -211.5)" style="fill:#fff"/><path d="M468.949,336.836a29.966,29.966,0,0,1,6.457-9.576,30.713,30.713,0,0,1,9.576-6.426,30,30,0,0,1,23.342,0,30.026,30.026,0,0,1,15.94,16,29.528,29.528,0,0,1,2.362,11.749,29.143,29.143,0,0,1-2.362,11.655,30.117,30.117,0,0,1-15.94,15.971,30.015,30.015,0,0,1-23.342,0,30.733,30.733,0,0,1-9.576-6.427,30.047,30.047,0,0,1-6.457-9.544,29.126,29.126,0,0,1-2.362-11.655A29.511,29.511,0,0,1,468.949,336.836Zm7.308,20.286a22.585,22.585,0,0,0,4.694,6.992,22.281,22.281,0,0,0,6.992,4.757,22.309,22.309,0,0,0,17.389,0,22.68,22.68,0,0,0,7.024-4.757,21.893,21.893,0,0,0,4.694-6.992,21.59,21.59,0,0,0,1.7-8.537,22,22,0,0,0-6.395-15.655,22.27,22.27,0,0,0-7.024-4.725,22.516,22.516,0,0,0-17.325,0,22.039,22.039,0,0,0-11.75,11.749,21.636,21.636,0,0,0-1.733,8.631A21.251,21.251,0,0,0,476.257,357.122Z" transform="translate(-314.543 -211.5)" style="fill:#fff"/><path d="M592.145,370.824v.378a31.92,31.92,0,0,1-2.426,12.254,29.582,29.582,0,0,1-6.4,9.575,28.543,28.543,0,0,1-9.451,6.206,30.926,30.926,0,0,1-22.616.126,26.076,26.076,0,0,1-9.135-5.859,4.422,4.422,0,0,1-1.449-3.182A3.794,3.794,0,0,1,542,387.394a4.234,4.234,0,0,1,1.8-1.009,3.6,3.6,0,0,1,1.638,0,4.844,4.844,0,0,1,1.48.631,14.634,14.634,0,0,1,1.323.944,21.158,21.158,0,0,0,6.93,4.158,22.291,22.291,0,0,0,7.875,1.26,21.143,21.143,0,0,0,8.284-1.764,20.844,20.844,0,0,0,6.742-4.693,21.873,21.873,0,0,0,4.5-7.088,24.039,24.039,0,0,0,1.637-9.009v-1.889a30.656,30.656,0,0,1-9.8,7.055,30.152,30.152,0,0,1-23.909.221,30.722,30.722,0,0,1-9.576-6.427,30.03,30.03,0,0,1-6.457-9.544,29.126,29.126,0,0,1-2.363-11.655,29.512,29.512,0,0,1,2.363-11.749,29.95,29.95,0,0,1,6.457-9.576,30.7,30.7,0,0,1,9.576-6.426,30.146,30.146,0,0,1,23.909.22,30.226,30.226,0,0,1,9.8,7.119v-5.8a3.7,3.7,0,0,1,1.166-2.8,4.118,4.118,0,0,1,5.608,0,3.7,3.7,0,0,1,1.166,2.8Zm-52.1-22.239a21.25,21.25,0,0,0,1.732,8.537,22.587,22.587,0,0,0,4.7,6.992,22.258,22.258,0,0,0,6.992,4.757,22.307,22.307,0,0,0,17.388,0,22.01,22.01,0,0,0,11.656-11.749,21.606,21.606,0,0,0,1.7-8.537,21.895,21.895,0,0,0-22.049-22.113,21.629,21.629,0,0,0-8.631,1.733,22.047,22.047,0,0,0-11.75,11.749A21.635,21.635,0,0,0,540.043,348.585Z" transform="translate(-314.543 -211.5)" style="fill:#fff"/><path d="M633.722,301.461a4.552,4.552,0,0,1,3.339-1.386,4.841,4.841,0,0,1,3.464,1.386,4.6,4.6,0,0,1,1.45,3.465,4.483,4.483,0,0,1-1.45,3.307,4.777,4.777,0,0,1-3.464,1.418,4.5,4.5,0,0,1-3.339-1.418,4.575,4.575,0,0,1-1.386-3.307A4.7,4.7,0,0,1,633.722,301.461Zm7.371,72.324a3.894,3.894,0,0,1-1.166,2.866,3.953,3.953,0,0,1-5.607,0,3.89,3.89,0,0,1-1.166-2.866V322.44a3.77,3.77,0,0,1,1.2-2.8,3.923,3.923,0,0,1,2.835-1.166,3.719,3.719,0,0,1,2.771,1.166,3.873,3.873,0,0,1,1.135,2.8Z" transform="translate(-314.543 -211.5)" style="fill:#fff"/><path d="M705.036,373.911a3.876,3.876,0,0,1-3.969,3.969,3.771,3.771,0,0,1-2.772-1.134,3.846,3.846,0,0,1-1.134-2.835V347.262q-.127-10.079-4.5-15.466T680.4,326.409a17.423,17.423,0,0,0-7.214,1.512,18.659,18.659,0,0,0-5.921,4.189,20.36,20.36,0,0,0-4.064,6.332,22.135,22.135,0,0,0-1.638,7.875v27.468a3.89,3.89,0,0,1-1.166,2.866,3.952,3.952,0,0,1-5.606,0,3.89,3.89,0,0,1-1.166-2.866V322.44a3.769,3.769,0,0,1,1.2-2.8,3.924,3.924,0,0,1,2.835-1.166,3.72,3.72,0,0,1,2.772,1.166,3.876,3.876,0,0,1,1.134,2.8v6.741a30.173,30.173,0,0,1,8.788-7.717,21.371,21.371,0,0,1,10.868-2.93,23.158,23.158,0,0,1,9.8,2.016,21.171,21.171,0,0,1,7.5,5.764,26.342,26.342,0,0,1,4.788,9.073,40.949,40.949,0,0,1,1.732,11.875v26.649Z" transform="translate(-314.543 -211.5)" style="fill:#fff"/><path d="M780.446,334.347l5.859-13.419a4.2,4.2,0,0,1,2.205-2.173,3.542,3.542,0,0,1,3.024.031,3.816,3.816,0,0,1,2.142,2.2,4.119,4.119,0,0,1-.126,3.151l-8.82,19.97,9.009,20.727,19.089-43.911a4.2,4.2,0,0,1,2.205-2.173,3.544,3.544,0,0,1,3.025.031,3.82,3.82,0,0,1,2.141,2.2,4.119,4.119,0,0,1-.126,3.151l-22.679,51.281a3.831,3.831,0,0,1-.757,1.135,4.426,4.426,0,0,1-1.2.944,4.094,4.094,0,0,1-1.449.315,4.475,4.475,0,0,1-1.889-.315,3.244,3.244,0,0,1-1.324-.944,5.477,5.477,0,0,1-.693-1.135l-9.576-21.672-9.575,21.672a2.49,2.49,0,0,1-.347.6c-.148.19-.284.369-.41.537a3.315,3.315,0,0,1-1.26.944,4.09,4.09,0,0,1-1.449.315,4.485,4.485,0,0,1-1.89-.315,3.413,3.413,0,0,1-1.26-.882,3.6,3.6,0,0,1-.755-1.2l-22.681-51.345a3.856,3.856,0,0,1-.094-3.087,3.957,3.957,0,0,1,2.11-2.2,3.627,3.627,0,0,1,3.024-.063,4.063,4.063,0,0,1,2.2,2.2l19.089,43.911,9.01-20.727-8.821-20.034a3.852,3.852,0,0,1-.094-3.087,3.951,3.951,0,0,1,2.11-2.2,3.627,3.627,0,0,1,3.024-.063,4.06,4.06,0,0,1,2.2,2.2Z" transform="translate(-314.543 -211.5)" style="fill:#fff"/><path d="M828.64,301.461a4.552,4.552,0,0,1,3.339-1.386,4.841,4.841,0,0,1,3.464,1.386,4.6,4.6,0,0,1,1.45,3.465,4.483,4.483,0,0,1-1.45,3.307,4.777,4.777,0,0,1-3.464,1.418,4.5,4.5,0,0,1-3.339-1.418,4.575,4.575,0,0,1-1.386-3.307A4.7,4.7,0,0,1,828.64,301.461Zm7.371,72.324a3.894,3.894,0,0,1-1.166,2.866,3.953,3.953,0,0,1-5.607,0,3.89,3.89,0,0,1-1.166-2.866V322.44a3.77,3.77,0,0,1,1.2-2.8,3.922,3.922,0,0,1,2.834-1.166,3.72,3.72,0,0,1,2.772,1.166,3.873,3.873,0,0,1,1.135,2.8Z" transform="translate(-314.543 -211.5)" style="fill:#fff"/><path d="M861.965,318.534h8.379a3.845,3.845,0,0,1,2.835,1.134,3.768,3.768,0,0,1,1.134,2.772,3.921,3.921,0,0,1-1.134,2.9,3.845,3.845,0,0,1-2.835,1.134h-8.379v47.439a3.725,3.725,0,0,1-1.165,2.773,3.884,3.884,0,0,1-2.8,1.133,3.871,3.871,0,0,1-3.906-3.906V326.472h-6.93a3.821,3.821,0,0,1-2.8-1.165,3.9,3.9,0,0,1-1.165-2.867,3.721,3.721,0,0,1,1.165-2.772,3.875,3.875,0,0,1,2.8-1.134h6.93V301.083a3.745,3.745,0,0,1,1.134-2.8,3.828,3.828,0,0,1,2.772-1.1,3.943,3.943,0,0,1,2.8,1.1,3.7,3.7,0,0,1,1.165,2.8Z" transform="translate(-314.543 -211.5)" style="fill:#fff"/><path d="M889.621,329.181a30.16,30.16,0,0,1,8.788-7.717,21.37,21.37,0,0,1,10.867-2.93,23.023,23.023,0,0,1,9.861,2.048,21.33,21.33,0,0,1,7.5,5.827,26.646,26.646,0,0,1,4.787,9.135,40.153,40.153,0,0,1,1.67,11.97v26.4a3.876,3.876,0,0,1-3.969,3.969,3.767,3.767,0,0,1-2.772-1.134,3.846,3.846,0,0,1-1.134-2.835V347.577q0-10.206-4.41-15.686t-12.348-5.482a17.42,17.42,0,0,0-7.214,1.512,18.663,18.663,0,0,0-5.922,4.189,20.375,20.375,0,0,0-4.063,6.332,22.135,22.135,0,0,0-1.638,7.875v27.468a3.894,3.894,0,0,1-1.166,2.866,3.952,3.952,0,0,1-5.606,0,3.886,3.886,0,0,1-1.166-2.866V301.209a3.888,3.888,0,0,1,1.166-2.866,3.989,3.989,0,0,1,5.637,0,3.948,3.948,0,0,1,1.135,2.866Z" transform="translate(-314.543 -211.5)" style="fill:#fff"/></svg>