<svg xmlns="http://www.w3.org/2000/svg" viewBox="0 0 67.4 89.9"><title>sleep</title><path d="M52.36,8.54a6.63,6.63,0,0,0-6.15-4.1h-24a4,4,0,0,0,0,8H43L19.23,36.17a6.65,6.65,0,0,0,4.7,11.35H48.37a4,4,0,0,0,0-8H27.19L50.92,15.79A6.65,6.65,0,0,0,52.36,8.54Z" transform="translate(-17.28 -4.44)"/><path d="M47.7,65.5A5.72,5.72,0,0,0,42.39,62H26.61a4,4,0,0,0,0,8h10.6L23.69,84.53a5.74,5.74,0,0,0,4.06,9.8H43.81a4,4,0,0,0,0-8H32.93L46.45,71.76A5.73,5.73,0,0,0,47.7,65.5Z" transform="translate(-17.28 -4.44)"/><path d="M80.35,62H69.93L83,49.5a5.74,5.74,0,0,0-4.06-9.8H63.15a4,4,0,1,0,0,8H73.29L60.23,60.15A5.74,5.74,0,0,0,64.29,70H80.35a4,4,0,1,0,0-8Z" transform="translate(-17.28 -4.44)"/></svg>