<svg xmlns="http://www.w3.org/2000/svg" viewBox="0 0 26.59 10.88"><title>woo!</title><path d="M44.57,56.53l-.37-.26-.46-.73a5.07,5.07,0,0,1-.35.81,6.93,6.93,0,0,1-.59.94,3.21,3.21,0,0,1-.74.77,5,5,0,0,1-.62.39,2.21,2.21,0,0,1-.71.24,2.68,2.68,0,0,1-.58,0,1.53,1.53,0,0,1-.53-.26,1.66,1.66,0,0,1-.6-.95A4.45,4.45,0,0,1,39,56.09a13.38,13.38,0,0,1,.28-1.66c.09-.35.17-.7.26-1l.18-.73,0-.18c.12-.51.24-1,.34-1.53.05-.23.08-.47.11-.71a3.42,3.42,0,0,0,0-.71,2.4,2.4,0,0,0-.1-.48.93.93,0,0,0-.25-.38l-.06,0a.18.18,0,0,0-.07,0,1.12,1.12,0,0,0-.48-.14,2.17,2.17,0,0,0-.51,0,8.35,8.35,0,0,0-1.89.55c-.36.14-.72.3-1.06.46s-.69.36-1,.56A17.22,17.22,0,0,0,33,51.26c-.22.18-.44.37-.65.58a5.88,5.88,0,0,0-.58.64,3.87,3.87,0,0,0-.27.43,1.48,1.48,0,0,0-.16.46.47.47,0,0,0,0,.17.26.26,0,0,0,.1.13,2.71,2.71,0,0,0,.52.22,2.63,2.63,0,0,0,.56.1h.32a.28.28,0,0,1,.29.11.32.32,0,0,1,0,.28.29.29,0,0,1-.25.21h-.45a3.35,3.35,0,0,1-.69-.13,2.48,2.48,0,0,1-.65-.27.88.88,0,0,1-.42-.63v-.2a1.8,1.8,0,0,1,.18-.65,4.15,4.15,0,0,1,.35-.57,6.22,6.22,0,0,1,.64-.71c.22-.22.46-.43.7-.63a16.66,16.66,0,0,1,1.88-1.32q.51-.3,1-.57c.36-.17.73-.34,1.11-.49a8.9,8.9,0,0,1,2-.58l.38,0a2,2,0,0,1,.49,0A1.64,1.64,0,0,1,40,48l.14.08a.13.13,0,0,0,.06,0,1.68,1.68,0,0,1,.44.6,2.06,2.06,0,0,1,.16.69,4.39,4.39,0,0,1,0,.81c0,.27-.08.53-.13.8-.1.51-.22,1-.34,1.54l0,.19-.18.73c-.09.35-.17.7-.26,1a12.13,12.13,0,0,0-.27,1.58,3.89,3.89,0,0,0,.06,1.18,1.11,1.11,0,0,0,.39.62.83.83,0,0,0,.32.14,1,1,0,0,0,.35,0,1.64,1.64,0,0,0,.55-.19,3.84,3.84,0,0,0,.5-.32,5,5,0,0,0,1.13-1.47,6.11,6.11,0,0,0,.53-1.25c0-.24.07-.37.07-.38v-.18a3.53,3.53,0,0,1,0-.46,1.91,1.91,0,0,1,.07-.47l0,0a.76.76,0,0,1,.11-.14.28.28,0,0,1,.2-.07.29.29,0,0,1,.29.15.76.76,0,0,1,.08.32,3.24,3.24,0,0,1-.15.94,3.19,3.19,0,0,0,.21.73,2.15,2.15,0,0,0,.43.66c.15.13.27.19.38.17a1.49,1.49,0,0,0,.49-.33,3.47,3.47,0,0,0,.68-.89,5.26,5.26,0,0,0,.52-1.15,4.11,4.11,0,0,1-.2-1,6.79,6.79,0,0,1,0-1.56,6.38,6.38,0,0,1,.15-.76,5.31,5.31,0,0,1,.24-.74v0a2.93,2.93,0,0,1,.23-.41.68.68,0,0,1,.37-.28.37.37,0,0,1,.39.09.56.56,0,0,1,.23.35,3.3,3.3,0,0,1,.05.75,5.87,5.87,0,0,1-.2,1.34,21.21,21.21,0,0,1-.62,2.06.65.65,0,0,0,0,.13.69.69,0,0,0,.06.13,1.61,1.61,0,0,0,.6.64,2,2,0,0,0,.4.16,1.9,1.9,0,0,0,.5.06,1.35,1.35,0,0,0,.55-.11c.19-.07.31-.06.38,0a.28.28,0,0,1,.06.27.39.39,0,0,1-.18.22.87.87,0,0,1-.41.12,3.44,3.44,0,0,1-.54,0,2.67,2.67,0,0,1-.54-.07,1.89,1.89,0,0,1-.54-.21,3.11,3.11,0,0,1-.47-.38l-.16-.18a5.65,5.65,0,0,1-.5.94,6.8,6.8,0,0,1-.55.71,2,2,0,0,1-.73.53A.78.78,0,0,1,44.57,56.53Zm3.11-6.85a.64.64,0,0,0-.06.1.93.93,0,0,1,0,.1l0,.06a3.63,3.63,0,0,0-.21.66c0,.22-.09.45-.13.68a6.72,6.72,0,0,0-.05,1.33,10.59,10.59,0,0,0,.34-1.24,5.57,5.57,0,0,0,.2-1.21A3.58,3.58,0,0,0,47.68,49.68Z" transform="translate(-30.7 -47.82)"/><path d="M50.17,53.72a.54.54,0,0,1,.39.06.85.85,0,0,1,.34.51,1.21,1.21,0,0,1,.05.34,2.17,2.17,0,0,0,.32,0,5.17,5.17,0,0,0,.95-.09l.59-.14h.09a.3.3,0,0,1,.32.09.32.32,0,0,1,.07.3c0,.11-.11.18-.25.22l-.07,0-.64.15a5.67,5.67,0,0,1-1.09.1l-.38,0a2,2,0,0,1-.08.31,3,3,0,0,1-.37.68,3.58,3.58,0,0,1-.26.29,1.24,1.24,0,0,1-.32.23,1,1,0,0,1-.37.1.62.62,0,0,1-.38-.11.69.69,0,0,1-.24-.6,1.59,1.59,0,0,1,.13-.53,4.67,4.67,0,0,1,.27-.49,4.38,4.38,0,0,1,.28-.42.38.38,0,0,1,.08-.11.57.57,0,0,1,0-.4.77.77,0,0,1,.38-.43A.68.68,0,0,1,50.17,53.72Zm-.1,1.33,0,.05-.25.38a2.15,2.15,0,0,0-.21.39,1,1,0,0,0-.1.3c0,.08,0,.09.13,0a1.36,1.36,0,0,0,.31-.32,2.06,2.06,0,0,0,.27-.51,1.94,1.94,0,0,0,.06-.22Zm.2-.67c0-.12-.08-.17-.13-.15s0,.07,0,.17S50.31,54.49,50.27,54.38Z" transform="translate(-30.7 -47.82)"/><path d="M53.46,53.72a.56.56,0,0,1,.4.06.85.85,0,0,1,.34.51,1.14,1.14,0,0,1,0,.34,2.5,2.5,0,0,0,.33,0,5.17,5.17,0,0,0,1-.09l.59-.14h.09a.3.3,0,0,1,.32.09.32.32,0,0,1,.07.3c0,.11-.11.18-.25.22l-.07,0-.64.15a5.67,5.67,0,0,1-1.09.1l-.38,0a1.4,1.4,0,0,1-.09.31,3,3,0,0,1-.36.68,3.58,3.58,0,0,1-.26.29,1.44,1.44,0,0,1-.32.23,1.08,1.08,0,0,1-.37.1.62.62,0,0,1-.38-.11.72.72,0,0,1-.25-.6,1.88,1.88,0,0,1,.14-.53,2.62,2.62,0,0,1,.27-.49q.14-.23.27-.42a.65.65,0,0,1,.09-.11.57.57,0,0,1,0-.4.77.77,0,0,1,.38-.43A.63.63,0,0,1,53.46,53.72Zm-.09,1.33,0,.05c-.09.12-.17.25-.25.38a2.15,2.15,0,0,0-.21.39,1.41,1.41,0,0,0-.11.3c0,.08,0,.09.14,0a1.36,1.36,0,0,0,.31-.32,2.06,2.06,0,0,0,.27-.51,1.94,1.94,0,0,0,.06-.22Zm.2-.67c0-.12-.08-.17-.13-.15s0,.07.05.17S53.6,54.49,53.57,54.38Z" transform="translate(-30.7 -47.82)"/><path d="M57.22,57.3a.47.47,0,0,1-.24.32.59.59,0,0,1-.36.08.49.49,0,0,1-.31-.13.43.43,0,0,1-.13-.31.51.51,0,0,1,.1-.37.5.5,0,0,1,.26-.2.66.66,0,0,1,.32,0,.44.44,0,0,1,.3.21A.53.53,0,0,1,57.22,57.3Zm0-8.58s0,.15,0,.34,0,.41,0,.68,0,.59,0,.95-.06,1-.1,2L57,54.85a1.55,1.55,0,0,1-.17.85.19.19,0,0,1-.28,0,2,2,0,0,1-.14-.92c0-.51,0-1.24,0-2.17s0-1.57,0-1.9,0-.68,0-.94,0-.5,0-.68a.87.87,0,0,1,0-.35C56.74,48.37,57,48.36,57.25,48.72Z" transform="translate(-30.7 -47.82)"/></svg>