<svg xmlns="http://www.w3.org/2000/svg" viewBox="0 0 348.67 112.64"><title>wooster-music</title><path d="M382.56,242.33l-2.69-1.84-3.35-5.42a43.6,43.6,0,0,1-2.62,6,55.08,55.08,0,0,1-4.28,6.89,24.36,24.36,0,0,1-5.43,5.59,36,36,0,0,1-4.58,2.9,17.26,17.26,0,0,1-5.22,1.74,14.81,14.81,0,0,1-4.23-.24,10.06,10.06,0,0,1-3.89-1.87,11.91,11.91,0,0,1-4.38-7,32.4,32.4,0,0,1-.52-10A98.32,98.32,0,0,1,343.43,227q.94-3.87,1.89-7.69l1.29-5.33.35-1.37q1.32-5.55,2.49-11.17c.31-1.72.59-3.46.81-5.23a31.71,31.71,0,0,0,.26-5.22,14.3,14.3,0,0,0-.73-3.48,6.87,6.87,0,0,0-1.85-2.79,1.53,1.53,0,0,1-.43-.3A2.63,2.63,0,0,0,347,184a8.35,8.35,0,0,0-3.5-1,19.62,19.62,0,0,0-3.76.06,60.42,60.42,0,0,0-13.88,4q-4,1.59-7.78,3.42a80.93,80.93,0,0,0-7.48,4.06,120.54,120.54,0,0,0-13.23,9.24q-2.44,2-4.77,4.23a39.84,39.84,0,0,0-4.25,4.75,32.66,32.66,0,0,0-2,3.11,9.79,9.79,0,0,0-1.16,3.37,3.09,3.09,0,0,0,.17,1.29,2,2,0,0,0,.78.95,18.17,18.17,0,0,0,3.78,1.59,24.74,24.74,0,0,0,4.12.77,15.49,15.49,0,0,0,2.36,0,2.1,2.1,0,0,1,2.13.78,2.33,2.33,0,0,1,.35,2.08,2.2,2.2,0,0,1-1.83,1.48,17.4,17.4,0,0,1-3.31,0,23.2,23.2,0,0,1-5-1,20.83,20.83,0,0,1-4.81-2,6.57,6.57,0,0,1-3.05-4.64c0-.32,0-.63,0-1v-.47a12.6,12.6,0,0,1,1.35-4.79,31.52,31.52,0,0,1,2.6-4.19,48,48,0,0,1,4.64-5.2q2.49-2.4,5.16-4.64a126.15,126.15,0,0,1,13.79-9.62,86.75,86.75,0,0,1,7.71-4.19c2.65-1.28,5.35-2.47,8.1-3.59a63.25,63.25,0,0,1,14.91-4.26,23.52,23.52,0,0,1,2.8-.17,15.81,15.81,0,0,1,3.61.33,12.55,12.55,0,0,1,3.48,1.26l1,.65a1.63,1.63,0,0,0,.43.3,11.94,11.94,0,0,1,3.26,4.34,17.85,17.85,0,0,1,1.16,5.11,32.4,32.4,0,0,1-.19,5.91c-.24,2-.55,3.92-.92,5.86-.75,3.79-1.58,7.55-2.5,11.31l-.3,1.37q-.69,2.72-1.33,5.37-.94,3.83-1.85,7.65a84,84,0,0,0-2,11.56,27.5,27.5,0,0,0,.43,8.64,7.88,7.88,0,0,0,2.88,4.55,5.65,5.65,0,0,0,2.34,1,8.42,8.42,0,0,0,2.56,0,12.57,12.57,0,0,0,4-1.39,33.51,33.51,0,0,0,3.67-2.34,35.84,35.84,0,0,0,8.27-10.81q3.42-6.6,3.91-9.2c.33-1.73.51-2.65.54-2.77l-.09-1.33c-.08-1.12-.11-2.24-.08-3.37a12.86,12.86,0,0,1,.56-3.42l.21-.39a4.93,4.93,0,0,1,.75-1,2.21,2.21,0,0,1,1.53-.51,2.06,2.06,0,0,1,2.1,1.14,6.66,6.66,0,0,1,.61,2.3,25.1,25.1,0,0,1-1.12,6.91,25.78,25.78,0,0,0,1.55,5.37,14.66,14.66,0,0,0,3.13,4.8c1.09,1,2,1.4,2.77,1.24a10.27,10.27,0,0,0,3.61-2.38,26.05,26.05,0,0,0,5-6.51,41.86,41.86,0,0,0,3.82-8.49,26.83,26.83,0,0,1-1.46-6.92,48.43,48.43,0,0,1,.26-11.47,55.24,55.24,0,0,1,1.07-5.54,40.82,40.82,0,0,1,1.77-5.42l.08-.17a22.67,22.67,0,0,1,1.68-3,4.9,4.9,0,0,1,2.75-2.08,2.9,2.9,0,0,1,2.88.65,4.45,4.45,0,0,1,1.67,2.57,26.4,26.4,0,0,1,.37,5.55,43.18,43.18,0,0,1-1.48,9.79,156.78,156.78,0,0,1-4.56,15.09,5.31,5.31,0,0,0-.3.94,8.49,8.49,0,0,0,.43,1,11.23,11.23,0,0,0,7.39,5.86,14.59,14.59,0,0,0,3.61.43,10.67,10.67,0,0,0,4.06-.77c1.36-.53,2.3-.46,2.81.19a2,2,0,0,1,.43,2,3,3,0,0,1-1.31,1.61,7.84,7.84,0,0,1-3,.88,25.84,25.84,0,0,1-4,.26,18.62,18.62,0,0,1-3.95-.49,15.2,15.2,0,0,1-4-1.55,20.29,20.29,0,0,1-3.44-2.79c-.65-.69-1-1.12-1.16-1.29a48.07,48.07,0,0,1-3.67,6.9,49.27,49.27,0,0,1-4,5.17,14.78,14.78,0,0,1-5.35,3.89A5.61,5.61,0,0,1,382.56,242.33Zm22.83-50.23a7,7,0,0,0-.47.8c-.09.19-.2.41-.34.66a2.62,2.62,0,0,0-.22.48,28.56,28.56,0,0,0-1.54,4.83c-.38,1.65-.69,3.32-.95,5a43.17,43.17,0,0,0-.34,9.75c.74-2.18,1.57-5.21,2.49-9.11a38.74,38.74,0,0,0,1.4-8.87C405.43,193.34,405.42,192.16,405.39,192.1Z" transform="translate(-280.83 -178.48)"/><path d="M423.61,221.75a4.23,4.23,0,0,1,2.92.48,6.16,6.16,0,0,1,2.5,3.69,10.05,10.05,0,0,1,.3,2.54c.6.08,1.39.14,2.36.17a33.48,33.48,0,0,0,7-.65q2.19-.42,4.38-1a4.38,4.38,0,0,1,.61-.12,2.3,2.3,0,0,1,2.36.66,2.44,2.44,0,0,1,.54,2.19,2.29,2.29,0,0,1-1.83,1.66,3,3,0,0,1-.52.13c-1.54.4-3.1.76-4.68,1.07a35.32,35.32,0,0,1-8,.73,23.64,23.64,0,0,1-2.75-.21,13,13,0,0,1-.65,2.32,20.11,20.11,0,0,1-2.71,5,17.93,17.93,0,0,1-1.89,2.11,10.93,10.93,0,0,1-2.36,1.72,7.78,7.78,0,0,1-2.71.68,4.45,4.45,0,0,1-2.75-.81,5.16,5.16,0,0,1-1.8-4.39,11.76,11.76,0,0,1,1-3.86,21.78,21.78,0,0,1,2-3.61c.63-1.06,1.31-2.09,2-3.1a5.57,5.57,0,0,1,.6-.81,3.92,3.92,0,0,1-.25-2.88,5.58,5.58,0,0,1,2.75-3.18A6.67,6.67,0,0,1,423.61,221.75Zm-.73,9.76-.26.34c-.63.92-1.24,1.86-1.84,2.84a20.48,20.48,0,0,0-1.55,2.81,10,10,0,0,0-.75,2.23q-.15.89,1,.09a9.74,9.74,0,0,0,2.25-2.34,15.22,15.22,0,0,0,2-3.74,9.11,9.11,0,0,0,.47-1.68A7.93,7.93,0,0,1,422.88,231.51Zm1.48-4.92c-.27-.85-.59-1.22-1-1.12s-.24.52.41,1.27S424.64,227.43,424.36,226.59Z" transform="translate(-280.83 -178.48)"/><path d="M447.8,221.75a4.27,4.27,0,0,1,2.93.48,6.15,6.15,0,0,1,2.49,3.69,10.05,10.05,0,0,1,.3,2.54c.6.08,1.39.14,2.36.17a33.48,33.48,0,0,0,7-.65c1.46-.28,2.92-.61,4.39-1a4.25,4.25,0,0,1,.6-.12,2.29,2.29,0,0,1,2.36.66,2.44,2.44,0,0,1,.54,2.19,2.29,2.29,0,0,1-1.83,1.66,3.18,3.18,0,0,1-.51.13c-1.55.4-3.11.76-4.69,1.07a35.32,35.32,0,0,1-8,.73,23.64,23.64,0,0,1-2.75-.21,12.24,12.24,0,0,1-.65,2.32,20.4,20.4,0,0,1-2.7,5,19,19,0,0,1-1.9,2.11,10.93,10.93,0,0,1-2.36,1.72,7.78,7.78,0,0,1-2.71.68,4.45,4.45,0,0,1-2.75-.81,5.19,5.19,0,0,1-1.8-4.39,11.76,11.76,0,0,1,1-3.86,21.78,21.78,0,0,1,2-3.61c.64-1.06,1.31-2.09,2-3.1a4.81,4.81,0,0,1,.61-.81,3.91,3.91,0,0,1-.26-2.88,5.58,5.58,0,0,1,2.75-3.18A6.67,6.67,0,0,1,447.8,221.75Zm-.73,9.76-.25.34c-.63.92-1.25,1.86-1.85,2.84a20.48,20.48,0,0,0-1.55,2.81,10,10,0,0,0-.75,2.23q-.15.89,1,.09a9.74,9.74,0,0,0,2.25-2.34,15.22,15.22,0,0,0,2-3.74,9.11,9.11,0,0,0,.47-1.68A7.93,7.93,0,0,1,447.07,231.51Zm1.49-4.92c-.28-.85-.6-1.22-1-1.12s-.24.52.41,1.27S448.83,227.43,448.56,226.59Z" transform="translate(-280.83 -178.48)"/><path d="M487.31,230.71l3.87-2.25c1.36-.81,2.39-1.1,3.07-.89a1.61,1.61,0,0,1,1.06,1.72c0,.93-.63,1.83-1.92,2.69s-2.59,1.67-3.91,2.43-2.59,1.52-3.82,2.3a41.38,41.38,0,0,0-5,3.52,10.59,10.59,0,0,1,.39,2.19,13.83,13.83,0,0,1-.51,4.64,16.74,16.74,0,0,1-2.2,4.34,20,20,0,0,1-3.52,3.65,20.55,20.55,0,0,1-4,2.37,6,6,0,0,1-4.46.08,4.37,4.37,0,0,1-1.72-1.57,5.33,5.33,0,0,1-.69-4.57,10.68,10.68,0,0,1,.86-2.24A21.37,21.37,0,0,1,468,244.7a45.43,45.43,0,0,1,4.59-4.17c1-.77,1.82-1.42,2.54-1.93a7.44,7.44,0,0,0-.69-1.12,14.26,14.26,0,0,0-1.89-2.24c-.69-.65-1.4-1.28-2.15-1.89a13.79,13.79,0,0,1-2.15-2.1,5.18,5.18,0,0,1-1-3.52,6.64,6.64,0,0,1,1.25-3,8.41,8.41,0,0,1,2.36-1.8,6.31,6.31,0,0,1,1.94-.46,3.21,3.21,0,0,1,2,.58,3.27,3.27,0,0,1,.82,4.09,7,7,0,0,1-2.36,2.45,34.11,34.11,0,0,1,2.57,2.32,24.37,24.37,0,0,1,2.45,2.83c.37.58.62.95.73,1.12,1.49-1,3-2,4.56-2.92C484.81,232.17,486.1,231.41,487.31,230.71Zm-10.8,12.57-1,.82a41.09,41.09,0,0,0-4.09,3.73,17.14,17.14,0,0,0-2.45,3.36,4,4,0,0,0-.55,1.89c0,.17.2.18.6,0a11.45,11.45,0,0,0,2.92-1.68,15.35,15.35,0,0,0,2.62-2.66,13,13,0,0,0,1.55-3A9.35,9.35,0,0,0,476.51,243.28Z" transform="translate(-280.83 -178.48)"/><path d="M515.42,229.7c-.39,1.18-.59,1.76-.59,1.76l-1.33-.21a55.55,55.55,0,0,0-6.4-.22,54.18,54.18,0,0,0-9.58.82q-.3,9.89-.47,20.28c-.09,2-.15,4.08-.18,6.15q-.25,9.84-.47,19.72c-.14,2.92-.24,6.52-.3,10.78a2.37,2.37,0,0,1-1.33,2.11,2.44,2.44,0,0,1-2.3-.13,2.33,2.33,0,0,1-1.1-2.28q.13-6.32.26-10.61.22-9.93.47-19.81l.22-6q.17-10,.3-19.51l-3,.47c-2.55.29-4,.22-4.47-.19a2.84,2.84,0,0,1-.56-2.24c.06-1.07.77-1.73,2.15-2s2.6-.44,3.69-.58q.73-1.86,1.63-4.69c.35-1.32.69-2.62,1-3.91l-.05-.43q.23-5.07.43-10.14t.73-10.18a5.88,5.88,0,0,1,.09-.9c.06-.83.16-1.74.3-2.71a6.34,6.34,0,0,1,.73-2.32c.8-1.26,1.66-1.91,2.58-1.94,1.12,0,2,.79,2.62,2.45a35.09,35.09,0,0,1,.24,6.15c-.1,2.06-.27,4.1-.5,6.1a2.29,2.29,0,0,0,0,.47q-.94,7.1-2.45,14a.81.81,0,0,1,0,.38c0,.63,0,1.27-.09,1.9,0,1.37-.07,2.76-.13,4.16V227q13.5-1.29,17.11,0A2.21,2.21,0,0,1,515.42,229.7Z" transform="translate(-280.83 -178.48)"/><path d="M524.67,239.11a15.12,15.12,0,0,1-6.1-.9,9.7,9.7,0,0,1-5.05-3.61,9.42,9.42,0,0,1-1.63-5.24,12.17,12.17,0,0,1,.62-4.45,11.74,11.74,0,0,1,1.38-2.6A8.85,8.85,0,0,1,517,219.6a5.44,5.44,0,0,1,3.78-.51,3.3,3.3,0,0,1,2.55,1.91,4.13,4.13,0,0,1-.19,3.35,12.2,12.2,0,0,1-2.21,3.4,26.13,26.13,0,0,1-4.45,3.58,3.37,3.37,0,0,0,.54.84,10.54,10.54,0,0,0,1.72,1.48,8.36,8.36,0,0,0,3.54,1.42,10.06,10.06,0,0,0,3.16.11,15.22,15.22,0,0,0,3.42-.84A29.38,29.38,0,0,0,534,232a25.09,25.09,0,0,0,4.12-3q1.78-1.63,2.58.3t-1.55,3.87a25.48,25.48,0,0,1-5.07,3.26,36.71,36.71,0,0,1-4.62,1.94A21.15,21.15,0,0,1,524.67,239.11Zm-8.12-12.89a9.43,9.43,0,0,0,1.79-1.74,9.69,9.69,0,0,0,.86-1.16c0-.07-.14,0-.45.13a5,5,0,0,0-1.29,1.22A3.79,3.79,0,0,0,516.55,226.22Z" transform="translate(-280.83 -178.48)"/><path d="M539.54,223.43A2.35,2.35,0,0,1,541,224a2.17,2.17,0,0,1,.71,1.59c.06.91.13,1.83.22,2.75.08,1.29.17,2.59.25,3.91q.18,3.18.3,6.31c.15-.8.3-1.6.48-2.4a28.14,28.14,0,0,1,2.19-6,16.11,16.11,0,0,1,3-4.16,6,6,0,0,1,1.76-1.12,4,4,0,0,1,2-.26,3.27,3.27,0,0,1,.56.13l.3.09a5.82,5.82,0,0,1,1.41.9,16.66,16.66,0,0,1,1.21,1.16l.17.17a2.48,2.48,0,0,0,1.55.86,7.57,7.57,0,0,0,1.5-.24c.49-.13,1-.28,1.46-.45l.34-.08a2.21,2.21,0,0,1,2.33.4,2.25,2.25,0,0,1,.64,2,2.31,2.31,0,0,1-1.59,1.74c-.89.29-1.78.54-2.69.75a7.56,7.56,0,0,1-2.77.15,6.67,6.67,0,0,1-3.86-2.06,3.1,3.1,0,0,1-.39-.43,8.38,8.38,0,0,1-.73-.73.52.52,0,0,0-.17.13,11.76,11.76,0,0,0-2.15,3,24.08,24.08,0,0,0-1.85,5.08,59,59,0,0,0-1.12,6.35A48.18,48.18,0,0,1,545,249.6a14.93,14.93,0,0,1-.77,2.1,3,3,0,0,1-1.47,1.59,3.2,3.2,0,0,1-1.07.17,1.51,1.51,0,0,1-.52,0,2.32,2.32,0,0,1-.47-.13,3.71,3.71,0,0,1-.81-.43,2.57,2.57,0,0,1-.89-1.33,10.43,10.43,0,0,1-.32-1.63,5.27,5.27,0,0,0-.13-.73q-.25-3.48-.34-6.92V242c-.09-3.15-.21-6.32-.39-9.5-.08-1.26-.17-2.53-.25-3.82-.06-.92-.13-1.83-.22-2.75a2.35,2.35,0,0,1,.62-1.85A2.19,2.19,0,0,1,539.54,223.43Z" transform="translate(-280.83 -178.48)"/><path d="M534.91,280.15a2.88,2.88,0,0,1-1.35-1.64,9,9,0,0,1-.4-3v-9.24l-6,13.32h-.48L520.44,266V279.6h-1V263.76h2.28l5.76,12.48,5.64-12.48h2.16v11.76a8.53,8.53,0,0,0,.56,3.45,1.83,1.83,0,0,0,1.72,1.23v.48A5.67,5.67,0,0,1,534.91,280.15Z" transform="translate(-280.83 -178.48)"/><path d="M552.77,279.06a4.28,4.28,0,0,1-1.91-2.32,11.64,11.64,0,0,1-.56-4v-6.12a3.79,3.79,0,0,0-.34-1.81,1.39,1.39,0,0,0-1.34-.59h-.48v-.48h2.16a2.91,2.91,0,0,1,1.33.23,1.29,1.29,0,0,1,.63.82,6.32,6.32,0,0,1,.2,1.83v6.84a6.85,6.85,0,0,0,1,4,3.75,3.75,0,0,0,3.26,1.37,5.61,5.61,0,0,0,2.9-.65,3.6,3.6,0,0,0,1.52-2,11.11,11.11,0,0,0,.46-3.5v-9h1v9a12.66,12.66,0,0,1-.53,4,4.09,4.09,0,0,1-1.86,2.29,7.54,7.54,0,0,1-3.73.77A7.25,7.25,0,0,1,552.77,279.06Z" transform="translate(-280.83 -178.48)"/><path d="M578.76,279.56a4.71,4.71,0,0,1-2.08-.95,2,2,0,0,1-.8-1.53v-2.74h.43a5.67,5.67,0,0,0,1.58,3.55,4.9,4.9,0,0,0,3.24,1,4.18,4.18,0,0,0,2.23-.57,1.86,1.86,0,0,0,.92-1.71,2.66,2.66,0,0,0-.62-1.75,7.68,7.68,0,0,0-2-1.56l-2.95-1.76a6.73,6.73,0,0,1-2.18-1.84,4.34,4.34,0,0,1,.65-5.33,4.75,4.75,0,0,1,3.38-1.2,7.06,7.06,0,0,1,2.42.43,6.42,6.42,0,0,1,2,1.09,2,2,0,0,1,.78,1.53v2.4h-.43a6.21,6.21,0,0,0-1.55-3.36,4.33,4.33,0,0,0-3.2-1.13,2.84,2.84,0,0,0-1.95.75,2.4,2.4,0,0,0-.84,1.84,2.3,2.3,0,0,0,.61,1.63,10,10,0,0,0,2.06,1.51l3,1.76a8.67,8.67,0,0,1,2.3,1.82,3.3,3.3,0,0,1,.67,2.14,3.89,3.89,0,0,1-1.34,3.14,5.51,5.51,0,0,1-3.65,1.13A11.81,11.81,0,0,1,578.76,279.56Z" transform="translate(-280.83 -178.48)"/><path d="M600.51,279.37a1.34,1.34,0,0,1-.63-.83,6.36,6.36,0,0,1-.19-1.82v-13h2.16v13a3.83,3.83,0,0,0,.33,1.81,1.43,1.43,0,0,0,1.35.59H604v.48h-2.16A3.07,3.07,0,0,1,600.51,279.37Z" transform="translate(-280.83 -178.48)"/><path d="M619,279a7.13,7.13,0,0,1-2.6-2.94,9.25,9.25,0,0,1-.91-4.14,9.65,9.65,0,0,1,1-4.35,8.15,8.15,0,0,1,2.71-3.14,6.57,6.57,0,0,1,3.74-1.15,9.69,9.69,0,0,1,3.37.54,5,5,0,0,1,2.15,1.38,2.5,2.5,0,0,1,.5,1.33,21.68,21.68,0,0,1,.1,2.27h-.48a6.23,6.23,0,0,0-1.68-3.45,4.65,4.65,0,0,0-3.24-1.11,5.29,5.29,0,0,0-4.18,1.82c-1.06,1.22-1.58,3.17-1.58,5.86a10,10,0,0,0,.61,3.53,6,6,0,0,0,1.91,2.65,5.06,5.06,0,0,0,3.24,1,5.58,5.58,0,0,0,3.06-.84,7.75,7.75,0,0,0,2.34-2.52l.48.36a7,7,0,0,1-2.73,3.06,7.85,7.85,0,0,1-3.87.9A7.15,7.15,0,0,1,619,279Z" transform="translate(-280.83 -178.48)"/></svg>